<svg width="200" height="520" xmlns="http://www.w3.org/2000/svg" data-name="Layer 1">
 <title>social_distancing</title>

 <g>
  <title>Layer 1</title>
  <rect transform="rotate(-61.8584 526.08 18.4562)" id="svg_4" fill="#3f3d56" height="97.80632" width="2.10972" y="368.81462" x="745.88142"/>
  <rect transform="rotate(-28.1571 503.933 207.953)" id="svg_7" fill="#3f3d56" height="2.00012" width="126.88732" y="500.40767" x="1426.36695"/>
  <rect transform="rotate(-61.8584 670.448 767.903)" id="svg_8" fill="#3f3d56" height="126.88732" width="2.00012" y="1027.90918" x="1537.23527"/>
  <path id="svg_15" fill="#3f3d56" d="m1245.93986,435.78436s0.69057,-14.46983 14.84713,-12.78791"/>
  <circle id="svg_16" fill="#4b4fa1" r="7.08526" cy="414.92927" cx="1241.93986"/>
  <rect id="svg_17" fill="#3f3d56" height="14" width="2" y="426.86042" x="1240.78699"/>
  <path id="svg_24" fill="#3f3d56" d="m876.74961,273.54637s0.69057,-14.46983 14.84713,-12.78791"/>
  <circle id="svg_25" fill="#4b4fa1" r="7.08526" cy="252.69128" cx="872.74961"/>
  <rect id="svg_26" fill="#3f3d56" height="14" width="2" y="264.62243" x="871.59674"/>
  <path id="svg_34" fill="#2f2e41" d="m1371.00035,469.61015s8.16069,13.8377 6.03182,23.77245s-5.677,8.51551 -21.28877,9.93476s-68.83373,1.41925 -68.83373,-8.51551s41.51765,-22.83651 41.69278,-18.86932s1.59438,11.77307 -2.66337,13.19232s-0.35482,0.35481 -0.35482,0.35481l45.41609,-19.86951z"/>
  <polygon id="svg_48" fill="#2f2e41" points="65.85791063308716,85.63801574707031 118.34390306472778,97.64900207519531 140.51989793777466,55.824005126953125 95.64090013504028,38.302001953125 65.85791063308716,85.63801574707031 "/>
  <path id="svg_49" fill="#ffb9b9" d="m93.74396,310.78889s-16.87156,38.664 -16.87156,49.91169c0,0 6.67833,30.5797 4.56938,39.01548l-7.38131,15.81709l-15.46559,-6.32683l-4.21789,-42.1789l0.703,-67.48624l38.66397,11.24771z"/>
  <path id="svg_50" fill="#ffb9b9" d="m103.23421,79.50792s1.406,23.1984 -1.406,30.22821s10.54472,20.38647 10.54472,20.38647l21.08954,-27.41628s-14.05963,-14.05963 -10.54472,-29.52523l-19.68354,6.32683z"/>
  <path id="svg_51" fill="#e6e6e6" d="m59.29786,240.13923s-20.38647,37.961 -0.703,35.14908s13.00518,-36.20357 13.00518,-36.20357"/>
  <polyline id="svg_52" fill="#ffb9b9" points="71.59991502761841,239.0850067138672 78.27789354324341,172.6529998779297 77.92691087722778,132.2320098876953 62.46090745925903,135.0430145263672 62.46090745925903,172.30101013183594 59.29791307449341,240.13902282714844 "/>
  <path id="svg_53" fill="#2f2e41" d="m54.72847,404.28544l30.22822,-11.9507l3.51491,59.75344s6.32687,18.27756 4.21787,25.30736c0,0 1.406,11.95068 -2.10895,12.65367s-13.35665,2.10894 -14.05963,1.406s-0.703,-2.81193 -0.703,-2.81193s-7.02982,4.92087 -7.7328,10.54473c0,0 -29.52523,9.13876 -30.22821,0.703s14.76261,-15.4656 14.76261,-15.4656l11.95069,-18.27752l-9.84171,-61.86245z"/>
  <path id="svg_54" fill="#ffb9b9" d="m156.66082,310.78889s-16.87156,38.664 -16.87156,49.91169c0,0 6.67832,30.5797 4.56938,39.01548l-7.38131,15.81709l-15.4656,-6.32683l-4.21789,-42.1789l0.703,-67.48624l38.66398,11.24771z"/>
  <path id="svg_55" fill="#2f2e41" d="m118.69981,404.28544l30.22821,-11.9507l3.51491,59.75344s6.32683,18.27752 4.21789,25.30734c0,0 1.406,11.95068 -2.109,12.65367s-13.35665,2.10894 -14.05963,1.406s-0.703,-2.81193 -0.703,-2.81193s-7.02982,4.92087 -7.7328,10.54473c0,0 -29.52523,9.13876 -30.22821,0.703s14.76261,-15.4656 14.76261,-15.4656l11.95069,-18.27752l-9.84167,-61.86243z"/>
  <path id="svg_56" fill="#ffb9b9" d="m132.76431,63.34274a22.4967,22.4967 0 0 1 -44.44619,4.92186a21.79764,21.79764 0 0 1 -0.55068,-4.92186a22.49844,22.49844 0 0 1 44.99687,0z"/>
  <path id="svg_57" fill="#575a89" d="m113.07595,108.33017l17.45674,-9.06537l7.8506,6.25344s18.98051,-0.703 26.01033,7.7328s10.89621,29.8767 10.89621,29.8767s-23.19839,-4.92087 -20.38647,14.76262l-4.21789,-11.24769l-3.8664,9.49025l-47.09977,16.16858l-21.08945,-35.85206s-14.05963,-4.21789 -18.9805,5.62385c0,0 1.05447,-35.50057 14.76261,-36.555c9.21905,-0.70915 16.16858,-0.703 16.16858,-0.703l7.7328,-1.406l4.95194,-1.75745l9.81067,6.67833z"/>
  <path id="svg_58" fill="#2f2e41" d="m142.95259,185.30674s36.90662,110.71956 26.3619,126.18516c0,0 -39.367,19.68348 -118.10092,-7.02982l31.9856,-124.07624q29.47119,-6.0271 59.75342,4.9209z"/>
  <path id="svg_59" fill="#575a89" d="m142.95259,185.30674l10.38705,-35.69436c-12.45993,-13.55038 -1.70576,-43.59776 -1.70576,-43.59776l-15.03427,-3.22163s-15.08788,40.68629 -30.55347,35.76542s-7.02982,-36.555 -7.02982,-36.555l-14.05963,1.406l-6.32684,24.60436l4.56932,52.37215c19.05664,-1.63463 39.04297,0.26747 59.75342,4.92082z"/>
  <polyline id="svg_60" fill="#ffb9b9" points="161.22988939285278,239.0850067138672 166.15090990066528,172.30101013183594 167.55691576004028,132.2320098876953 152.09188890457153,135.0430145263672 152.09188890457153,172.30101013183594 148.92788743972778,240.13902282714844 "/>
  <path id="svg_61" fill="#fff" d="m148.92802,240.13923s-20.38647,37.961 -0.703,35.14908s13.00518,-36.20357 13.00518,-36.20357"/>
  <path id="svg_62" fill="#575a89" d="m175.28983,143.12774s-2.49889,-36.10212 -23.39337,-35.97709l0,41.7504s15.66057,-9.2882 23.39337,-5.77331z"/>
  <path id="svg_63" fill="#fff" d="m117.45934,69.14798a0.57367,0.57367 0 0 1 -0.35852,-1.0218l11.47291,-9.17833a0.57392,0.57392 0 1 1 0.717,0.89632l-11.47291,9.17833a0.57433,0.57433 0 0 1 -0.35848,0.12548z"/>
  <path id="svg_64" fill="#fff" d="m118.32757,82.91548c-0.25237,0.30972 -0.50474,0.61951 -0.76859,0.90633a22.498,22.498 0 0 1 -31.24086,-15.55726l10.87124,-2l21.13821,2c-4.84153,5.89709 -4.2564,7.93919 0,14.65093z"/>
  <path id="svg_65" fill="#2f2e41" d="m97.56285,31.85316s-11.62689,2.187 -14.31567,16.68788a26.62077,26.62077 0 0 0 -0.2277,7.40429c0.26848,2.79126 -0.121,8.68672 -6.18175,15.62856a151.96767,151.96767 0 0 0 -11.03539,14.17242l0,0l12.14907,3.23424l5.42817,-20.12881a102.97,102.97 0 0 1 12.03225,-27.655l0.1116,-0.17906s4.03511,10.7817 14.8503,12.25976l-3.33469,-4.39044s12.643,7.30862 19.806,9.54126a4.7063,4.7063 0 0 1 1.51868,8.1838q-0.0762,0.05994 -0.15523,0.12c-5.26853,4.00163 -16.01675,13.54991 -11.77049,22.78659s-0.70555,10.92077 -0.70555,10.92077l9.13111,-3.47375l4.17929,-1.78966l-0.4223,3.09005l20.40208,0.42743s5.51317,-0.03349 -4.27975,-14.74985c0,0 -2.36295,-5.51806 -0.42307,-9.73367a22.393,22.393 0 0 0 2.2614,-10.26077c-0.61674,-14.83685 -6.86689,-45.02104 -49.01836,-32.09604z"/>
  <rect transform="rotate(-20.8769 607.79 -62.3156)" stroke="null" id="svg_77" opacity="0.2" height="115.56155" width="2.22678" y="501.06804" x="876.2054"/>
 </g>
</svg>