<svg width="740.67538" height="473.94856" xmlns="http://www.w3.org/2000/svg" data-name="Layer 1">
 <g>
  <title>Layer 1</title>
  <path d="m111.51088,129.42278a122.0417,122.0417 0 0 1 10.10051,-38.51722q2.27961,-5.09249 5.01812,-9.96076a0.7438,0.7438 0 0 0 -1.28353,-0.75026a123.72825,123.72825 0 0 0 -13.7678,37.98231q-1.03367,5.58356 -1.55378,11.24593c-0.08811,0.95214 1.39893,0.94613 1.48648,0z" fill="#e6e6e6" id="svg_1"/>
  <circle cx="130.22983" cy="73.9144" r="9.4144" fill="#e6e6e6" id="svg_2"/>
  <path d="m112.47391,129.67282a79.17409,79.17409 0 0 1 6.55267,-24.98792q1.47889,-3.30372 3.25549,-6.462a0.48254,0.48254 0 0 0 -0.83269,-0.48673a80.26843,80.26843 0 0 0 -8.93181,24.64089q-0.67059,3.6223 -1.008,7.29576c-0.05716,0.6177 0.90755,0.6138 0.96435,0l-0.00001,0z" fill="#e6e6e6" id="svg_3"/>
  <circle cx="124.61776" cy="93.66195" r="6.10756" fill="#e6e6e6" id="svg_4"/>
  <path d="m111.25676,129.09627a79.17418,79.17418 0 0 1 -10.20241,-23.73277q-0.86592,-3.51453 -1.40763,-7.09749a0.48254,0.48254 0 0 0 -0.95593,0.12838a80.26861,80.26861 0 0 0 8.11306,24.92246q1.6992,3.26858 3.69253,6.37255c0.33485,0.5222 1.09311,-0.07423 0.76038,-0.59313z" fill="#e6e6e6" id="svg_5"/>
  <circle cx="98.68311" cy="93.23322" r="6.10756" fill="#e6e6e6" id="svg_6"/>
  <path d="m92.50698,134.49999l0,-12a4.50508,4.50508 0 0 1 4.5,-4.5l28,0a4.50508,4.50508 0 0 1 4.5,4.5l0,12a4.50508,4.50508 0 0 1 -4.5,4.5l-28,0a4.50508,4.50508 0 0 1 -4.5,-4.5z" fill="#f2f2f2" id="svg_7"/>
  <path d="m124.00698,57.99999l-12,0a4.50508,4.50508 0 0 1 -4.5,-4.5l0,-49a4.50508,4.50508 0 0 1 4.5,-4.5l12,0a4.50508,4.50508 0 0 1 4.5,4.5l0,49a4.50508,4.50508 0 0 1 -4.5,4.5z" fill="#f2f2f2" id="svg_8"/>
  <rect x="108.00698" y="9.5" width="20" height="4" fill="#ccc" id="svg_9"/>
  <rect x="108.00698" y="40.5" width="20" height="4" fill="#ccc" id="svg_10"/>
  <path d="m154.00698,57.99999l-12,0a4.50508,4.50508 0 0 1 -4.5,-4.5l0,-49a4.50508,4.50508 0 0 1 4.5,-4.5l12,0a4.50508,4.50508 0 0 1 4.5,4.5l0,49a4.50508,4.50508 0 0 1 -4.5,4.5z" fill="#f2f2f2" id="svg_11"/>
  <rect x="138.00698" y="9.5" width="20" height="4" fill="#ccc" id="svg_12"/>
  <rect x="138.00698" y="40.5" width="20" height="4" fill="#ccc" id="svg_13"/>
  <path d="m184.00698,57.99999l-12,0a4.50508,4.50508 0 0 1 -4.5,-4.5l0,-49a4.50508,4.50508 0 0 1 4.5,-4.5l12,0a4.50508,4.50508 0 0 1 4.5,4.5l0,49a4.50508,4.50508 0 0 1 -4.5,4.5z" fill="#f2f2f2" id="svg_14"/>
  <rect x="168.00698" y="9.5" width="20" height="4" fill="#ccc" id="svg_15"/>
  <rect x="168.00698" y="40.5" width="20" height="4" fill="#ccc" id="svg_16"/>
  <path d="m200.00698,138.99999l-12,0a4.50508,4.50508 0 0 1 -4.5,-4.5l0,-49a4.50508,4.50508 0 0 1 4.5,-4.5l12,0a4.50508,4.50508 0 0 1 4.5,4.5l0,49a4.50508,4.50508 0 0 1 -4.5,4.5z" fill="#f2f2f2" id="svg_17"/>
  <rect x="184.00698" y="90.5" width="20" height="4" fill="#ccc" id="svg_18"/>
  <rect x="184.00698" y="121.5" width="20" height="4" fill="#ccc" id="svg_19"/>
  <path d="m230.00698,138.99999l-12,0a4.50508,4.50508 0 0 1 -4.5,-4.5l0,-49a4.50508,4.50508 0 0 1 4.5,-4.5l12,0a4.50508,4.50508 0 0 1 4.5,4.5l0,49a4.50508,4.50508 0 0 1 -4.5,4.5z" fill="#f2f2f2" id="svg_20"/>
  <rect x="214.00698" y="90.5" width="20" height="4" fill="#ccc" id="svg_21"/>
  <rect x="214.00698" y="121.5" width="20" height="4" fill="#ccc" id="svg_22"/>
  <path d="m260.00698,138.99999l-12,0a4.50508,4.50508 0 0 1 -4.5,-4.5l0,-49a4.50508,4.50508 0 0 1 4.5,-4.5l12,0a4.50508,4.50508 0 0 1 4.5,4.5l0,49a4.50508,4.50508 0 0 1 -4.5,4.5z" fill="#f2f2f2" id="svg_23"/>
  <rect x="244.00698" y="90.5" width="20" height="4" fill="#ccc" id="svg_24"/>
  <rect x="244.00698" y="121.5" width="20" height="4" fill="#ccc" id="svg_25"/>
  <path d="m121.00698,219.99999l-12,0a4.50508,4.50508 0 0 1 -4.5,-4.5l0,-49a4.50508,4.50508 0 0 1 4.5,-4.5l12,0a4.50508,4.50508 0 0 1 4.5,4.5l0,49a4.50508,4.50508 0 0 1 -4.5,4.5z" fill="#f2f2f2" id="svg_26"/>
  <rect x="105.00698" y="171.5" width="20" height="4" fill="#ccc" id="svg_27"/>
  <rect x="105.00698" y="202.5" width="20" height="4" fill="#ccc" id="svg_28"/>
  <path d="m151.00698,219.99999l-12,0a4.50508,4.50508 0 0 1 -4.5,-4.5l0,-49a4.50508,4.50508 0 0 1 4.5,-4.5l12,0a4.50508,4.50508 0 0 1 4.5,4.5l0,49a4.50508,4.50508 0 0 1 -4.5,4.5z" fill="#f2f2f2" id="svg_29"/>
  <rect x="135.00698" y="171.5" width="20" height="4" fill="#ccc" id="svg_30"/>
  <rect x="135.00698" y="202.5" width="20" height="4" fill="#ccc" id="svg_31"/>
  <path d="m181.00698,219.99999l-12,0a4.50508,4.50508 0 0 1 -4.5,-4.5l0,-49a4.50508,4.50508 0 0 1 4.5,-4.5l12,0a4.50508,4.50508 0 0 1 4.5,4.5l0,49a4.50508,4.50508 0 0 1 -4.5,4.5z" fill="#f2f2f2" id="svg_32"/>
  <rect x="165.00698" y="171.5" width="20" height="4" fill="#ccc" id="svg_33"/>
  <rect x="165.00698" y="202.5" width="20" height="4" fill="#ccc" id="svg_34"/>
  <path d="m214.00698,57.99999l-12,0a4.50508,4.50508 0 0 1 -4.5,-4.5l0,-49a4.50508,4.50508 0 0 1 4.5,-4.5l12,0a4.50508,4.50508 0 0 1 4.5,4.5l0,49a4.50508,4.50508 0 0 1 -4.5,4.5z" fill="#f2f2f2" id="svg_35"/>
  <rect x="198.00698" y="9.5" width="20" height="4" fill="#ccc" id="svg_36"/>
  <rect x="198.00698" y="40.5" width="20" height="4" fill="#ccc" id="svg_37"/>
  <path d="m244.00698,57.99999l-12,0a4.50508,4.50508 0 0 1 -4.5,-4.5l0,-49a4.50508,4.50508 0 0 1 4.5,-4.5l12,0a4.50508,4.50508 0 0 1 4.5,4.5l0,49a4.50508,4.50508 0 0 1 -4.5,4.5z" fill="#f2f2f2" id="svg_38"/>
  <rect x="228.00698" y="9.5" width="20" height="4" fill="#ccc" id="svg_39"/>
  <rect x="228.00698" y="40.5" width="20" height="4" fill="#ccc" id="svg_40"/>
  <path d="m274.00698,57.99999l-12,0a4.50508,4.50508 0 0 1 -4.5,-4.5l0,-49a4.50508,4.50508 0 0 1 4.5,-4.5l12,0a4.50508,4.50508 0 0 1 4.5,4.5l0,49a4.50508,4.50508 0 0 1 -4.5,4.5z" fill="#f2f2f2" id="svg_41"/>
  <rect x="258.00698" y="9.5" width="20" height="4" fill="#ccc" id="svg_42"/>
  <rect x="258.00698" y="40.5" width="20" height="4" fill="#ccc" id="svg_43"/>
  <path d="m304.00698,57.99999l-12,0a4.50508,4.50508 0 0 1 -4.5,-4.5l0,-49a4.50508,4.50508 0 0 1 4.5,-4.5l12,0a4.50508,4.50508 0 0 1 4.5,4.5l0,49a4.50508,4.50508 0 0 1 -4.5,4.5z" fill="#f2f2f2" id="svg_44"/>
  <rect x="288.00698" y="9.5" width="20" height="4" fill="#ccc" id="svg_45"/>
  <rect x="288.00698" y="40.5" width="20" height="4" fill="#ccc" id="svg_46"/>
  <path d="m348.94793,59.49999l-285,0a1,1 0 0 1 0,-2l285,0a1,1 0 0 1 0,2z" fill="#ccc" id="svg_47"/>
  <path d="m348.94793,140.49999l-285,0a1,1 0 0 1 0,-2l285,0a1,1 0 0 1 0,2z" fill="#ccc" id="svg_48"/>
  <path d="m348.94793,221.49999l-285,0a1,1 0 0 1 0,-2l285,0a1,1 0 0 1 0,2z" fill="#ccc" id="svg_49"/>
  <path d="m331.06997,378.48227c0,-7.732 -29.10156,-14 -65,-14s-65,6.268 -65,14c0,4.95545 11.96436,9.30622 30,11.79432l0,76.70568a6.5,6.5 0 0 0 13,0l0,-75.324c6.87207,0.53241 14.27686,0.824 22,0.824s15.12793,-0.29162 22,-0.824l0,75.324a6.5,6.5 0 0 0 13,0l0,-76.70568c18.03565,-2.4881 30,-6.83887 30,-11.79432z" fill="#ccc" id="svg_50"/>
  <polygon points="319.563 460.906 331.823 460.906 337.655 413.618 319.561 413.618 319.563 460.906" fill="#a0616a" id="svg_51"/>
  <path d="m1448.69469,1813.12002l38.53073,0a0,0 0 0 1 0,0l0,14.88687a0,0 0 0 1 0,0l-23.64387,0a14.88686,14.88686 0 0 1 -14.88686,-14.88686l0,0a0,0 0 0 1 0,-0.00001z" fill="#2f2e41" transform="rotate(179.997 902.096 1142.69)" id="svg_52"/>
  <polygon points="338.701 454.064 350.398 450.393 341.806 403.528 324.542 408.945 338.701 454.064" fill="#a0616a" id="svg_53"/>
  <path d="m1679.84042,1571.29992l38.53073,0a0,0 0 0 1 0,0l0,14.88687a0,0 0 0 1 0,0l-23.64388,0a14.88686,14.88686 0 0 1 -14.88686,-14.88686l0,0a0,0 0 0 1 0.00001,-0.00001z" fill="#2f2e41" transform="rotate(162.577 1113.69 912.876)" id="svg_54"/>
  <path d="m330.49881,432.29872l-22.42725,-58.87109c-5.03149,1.18164 -47.22656,10.51855 -61.35889,-4.52832c-4.84326,-5.15723 -5.78784,-12.62891 -2.80761,-22.208l8.24756,-10.36426l0.25634,0.01367c3.11841,0.16406 76.43531,4.27344 81.46119,26.38867c4.23754,18.64454 11.97656,53.40528 14.24731,63.61524a4.51573,4.51573 0 0 1 -2.814,5.18359l-9.01928,3.38184a4.46228,4.46228 0 0 1 -1.572,0.28613a4.51293,4.51293 0 0 1 -4.21337,-2.89747z" fill="#2f2e41" id="svg_55"/>
  <path d="m317.49881,439.29872l-22.42725,-58.87109c-5.03174,1.18164 -47.22656,10.51757 -61.35889,-4.52832c-4.84326,-5.15723 -5.78784,-12.62891 -2.80761,-22.208l8.24756,-10.36426l0.25634,0.01367c3.11841,0.16406 76.43531,4.27344 81.46119,26.38867c4.23754,18.64454 11.97656,53.40528 14.24731,63.61524a4.51573,4.51573 0 0 1 -2.814,5.18359l-9.01928,3.38184a4.46228,4.46228 0 0 1 -1.572,0.28613a4.51293,4.51293 0 0 1 -4.21337,-2.89747z" fill="#2f2e41" id="svg_56"/>
  <path d="m347.80694,298.17619a10.52657,10.52657 0 0 0 -0.88488,1.40152l-49.32026,5.19623l-7.09959,-9.734l-16.09071,8.79449l13.94447,23.62125l60.48739,-15.42252a10.49579,10.49579 0 1 0 -1.03642,-13.857l0,0.00003z" fill="#a0616a" id="svg_57"/>
  <path d="m230.58792,356.7997a4.50694,4.50694 0 0 1 -1.81861,-4.34864c2.78248,-18.34277 -0.41894,-44.61914 -3.59472,-63.43261a24.79543,24.79543 0 0 1 27.55932,-28.76172a79.86459,79.86459 0 0 1 9.91285,1.9541l0,0a24.59626,24.59626 0 0 1 18.582,24.46777c-0.47486,18.1543 3.21142,40.80567 4.81836,49.70117a4.51862,4.51862 0 0 1 -0.83374,3.51075a4.39229,4.39229 0 0 1 -3.09546,1.75c-17.80811,1.81738 -37.01221,10.50195 -46.87451,15.5166a4.50062,4.50062 0 0 1 -2.04956,0.501a4.42884,4.42884 0 0 1 -2.60593,-0.85842z" fill="#fe4400" id="svg_58"/>
  <path d="m278.65869,309.48817a4.47083,4.47083 0 0 1 -2.47363,-2.39746l-9.9314,-22.94238a11.49973,11.49973 0 1 1 21.10718,-9.13574l9.93164,22.94238a4.5057,4.5057 0 0 1 -2.342,5.917l-12.8479,5.56153a4.46857,4.46857 0 0 1 -3.44385,0.05468l-0.00004,-0.00001z" fill="#fe4400" id="svg_59"/>
  <path d="m300.80694,296.17619a10.52657,10.52657 0 0 0 -0.88488,1.40152l-49.32026,5.19623l-7.09959,-9.734l-16.09071,8.79449l13.94447,23.62125l60.48739,-15.42252a10.49579,10.49579 0 1 0 -1.03642,-13.857l0,0.00003z" fill="#a0616a" id="svg_60"/>
  <path d="m231.65869,310.48817a4.47083,4.47083 0 0 1 -2.47363,-2.39746l-9.9314,-22.94238a11.49973,11.49973 0 1 1 21.10718,-9.13574l9.93164,22.94238a4.5057,4.5057 0 0 1 -2.342,5.917l-12.8479,5.56153a4.46857,4.46857 0 0 1 -3.44385,0.05468l-0.00004,-0.00001z" fill="#fe4400" id="svg_61"/>
  <circle cx="250.90622" cy="227.89093" r="24.56103" fill="#a0616a" id="svg_62"/>
  <path d="m233.34569,244.74763a2.13481,2.13481 0 0 1 1.85636,-2.81906a4.93049,4.93049 0 0 1 3.4761,1.715a13.83414,13.83414 0 0 0 3.07115,2.63711c1.18812,0.59889 2.79953,0.51354 3.47686,-0.62825c0.636,-1.0722 0.20022,-2.508 -0.18483,-3.75346a36.90711,36.90711 0 0 1 -1.62991,-9.77c-0.11092,-3.70031 0.41115,-7.562 2.45972,-10.44806c2.64387,-3.72476 7.37142,-5.13883 11.84544,-5.03631s8.87547,1.48363 13.30714,2.35666c1.52991,0.30139 3.32825,0.45549 4.35152,-0.73025c1.08805,-1.26082 0.68844,-3.3014 0.22563,-5.00376c-1.20094,-4.41743 -2.475,-8.98461 -5.26525,-12.55225a18.89838,18.89838 0 0 0 -12.06081,-6.79013a28.93848,28.93848 0 0 0 -13.46236,1.52838a36.09622,36.09622 0 0 0 -17.68285,12.3186a29.23591,29.23591 0 0 0 -5.57809,21.60019a26.66717,26.66717 0 0 0 9.88579,16.85462l1.90839,-1.47903z" fill="#2f2e41" id="svg_63"/>
  <path d="m139.566,303.87633a122.0417,122.0417 0 0 1 10.10051,-38.51722q2.27961,-5.09249 5.01812,-9.96076a0.7438,0.7438 0 0 0 -1.28353,-0.75026a123.72825,123.72825 0 0 0 -13.7678,37.98231q-1.03368,5.58355 -1.55378,11.24593c-0.08812,0.95214 1.39892,0.94613 1.48648,0z" fill="#3f3d56" id="svg_64"/>
  <circle cx="158.28495" cy="248.36795" r="9.4144" fill="#fe4400" id="svg_65"/>
  <path d="m140.52903,304.12637a79.17409,79.17409 0 0 1 6.55267,-24.98792q1.47889,-3.30372 3.25549,-6.462a0.48254,0.48254 0 0 0 -0.83269,-0.48673a80.26817,80.26817 0 0 0 -8.93181,24.64089q-0.67059,3.62231 -1.008,7.29576c-0.05716,0.6177 0.90755,0.6138 0.96435,0l-0.00001,0z" fill="#3f3d56" id="svg_66"/>
  <circle cx="152.67288" cy="268.1155" r="6.10756" fill="#fe4400" id="svg_67"/>
  <path d="m139.31187,303.54983a79.17415,79.17415 0 0 1 -10.2024,-23.73277q-0.86592,-3.51453 -1.40763,-7.09749a0.48254,0.48254 0 0 0 -0.95593,0.12838a80.26861,80.26861 0 0 0 8.11306,24.92246q1.69919,3.26857 3.69253,6.37255c0.33485,0.5222 1.09311,-0.07423 0.76037,-0.59313z" fill="#3f3d56" id="svg_68"/>
  <circle cx="126.73823" cy="267.68677" r="6.10756" fill="#fe4400" id="svg_69"/>
  <path d="m120.5621,308.95354l0,-12a4.50508,4.50508 0 0 1 4.5,-4.5l28,0a4.50508,4.50508 0 0 1 4.5,4.5l0,12a4.50508,4.50508 0 0 1 -4.5,4.5l-28,0a4.50508,4.50508 0 0 1 -4.5,-4.5z" fill="#ccc" id="svg_70"/>
  <rect x="289.06998" y="305.48228" width="86" height="7" rx="3.5" fill="#ccc" id="svg_71"/>
  <path d="m424.56997,312.48227l-89,0a6.50736,6.50736 0 0 1 -6.5,-6.5l0,-49a6.50737,6.50737 0 0 1 6.5,-6.5l89,0a6.50737,6.50737 0 0 1 6.5,6.5l0,49a6.50736,6.50736 0 0 1 -6.5,6.5z" fill="#ccc" id="svg_72"/>
  <circle cx="380.06998" cy="281.48228" r="6" fill="#fff" id="svg_73"/>
  <path d="m651.06997,378.48227c0,-7.732 -29.10156,-14 -65,-14s-65,6.268 -65,14c0,4.95545 11.96436,9.30622 30,11.79432l0,76.70568a6.5,6.5 0 0 0 13,0l0,-75.324c6.87207,0.53241 14.27686,0.824 22,0.824s15.12793,-0.29162 22,-0.824l0,75.324a6.5,6.5 0 0 0 13,0l0,-76.70568c18.03565,-2.4881 30,-6.83887 30,-11.79432z" fill="#ccc" id="svg_74"/>
  <circle cx="593.25735" cy="222.33974" r="28" fill="#2f2e41" id="svg_75"/>
  <polygon points="523.577 461.906 511.317 461.906 505.485 414.618 523.579 414.618 523.577 461.906" fill="#ffb8b8" id="svg_76"/>
  <path d="m502.56,458.40253l23.64387,0a0,0 0 0 1 0,0l0,14.88687a0,0 0 0 1 0,0l-38.53078,0a0,0 0 0 1 0,0l0,0a14.88686,14.88686 0 0 1 14.88691,-14.88687z" fill="#2f2e41" id="svg_77"/>
  <polygon points="504.439 455.064 492.742 451.393 501.334 404.528 518.598 409.945 504.439 455.064" fill="#ffb8b8" id="svg_78"/>
  <path d="m715.57428,262.29619l23.64387,0a0,0 0 0 1 0,0l0,14.88687a0,0 0 0 1 0,0l-38.53073,0a0,0 0 0 1 0,0l0,0a14.88686,14.88686 0 0 1 14.88686,-14.88687z" fill="#2f2e41" transform="rotate(17.4226 2.90601 -397.128)" id="svg_79"/>
  <path d="m508.42776,436.19618a4.46224,4.46224 0 0 1 -1.572,-0.28613l-9.01929,-3.38184a4.51573,4.51573 0 0 1 -2.814,-5.18359c2.27075,-10.21 10.00976,-44.9707 14.24731,-63.61524c5.02588,-22.11523 78.34278,-26.22461 81.46118,-26.38867l0.25635,-0.01367l8.24758,10.36423c2.98022,9.5791 2.03564,17.05078 -2.80762,22.208c-14.13232,15.04687 -56.32739,5.71 -61.35888,4.52832l-22.42725,58.87109a4.51293,4.51293 0 0 1 -4.21338,2.8975z" fill="#2f2e41" id="svg_80"/>
  <path d="m521.42776,443.19618a4.46224,4.46224 0 0 1 -1.572,-0.28613l-9.01929,-3.38184a4.51573,4.51573 0 0 1 -2.814,-5.18359c2.27075,-10.21 10.00976,-44.9707 14.24731,-63.61524c5.02588,-22.11523 78.34278,-26.22461 81.46118,-26.38867l0.25635,-0.01367l8.24758,10.36423c2.98022,9.5791 2.03564,17.05078 -2.80762,22.208c-14.13232,15.04589 -56.32715,5.71 -61.35888,4.52832l-22.42725,58.87109a4.51293,4.51293 0 0 1 -4.21338,2.8975z" fill="#2f2e41" id="svg_81"/>
  <path d="m495.333,299.17619a10.52563,10.52563 0 0 1 0.88489,1.40152l49.32026,5.19623l7.09959,-9.734l16.09071,8.79449l-13.94447,23.62125l-60.48739,-15.4225a10.4958,10.4958 0 1 1 1.03641,-13.857l0,0.00001z" fill="#ffb8b8" id="svg_82"/>
  <path d="m609.94607,358.6581a4.50062,4.50062 0 0 1 -2.04956,-0.501c-9.8623,-5.01465 -29.06641,-13.69922 -46.87451,-15.5166a4.39229,4.39229 0 0 1 -3.09546,-1.75a4.51858,4.51858 0 0 1 -0.83374,-3.51075c1.60693,-8.8955 5.29321,-31.54687 4.81836,-49.70117a24.59626,24.59626 0 0 1 18.582,-24.46777l0,0a79.86445,79.86445 0 0 1 9.91284,-1.9541a24.79544,24.79544 0 0 1 27.55933,28.76172c-3.17578,18.81347 -6.3772,45.08984 -3.59473,63.43261a4.50694,4.50694 0 0 1 -1.8186,4.34864a4.42884,4.42884 0 0 1 -2.60593,0.85842z" fill="#fe4400" id="svg_83"/>
  <path d="m562.824,310.80653a4.49628,4.49628 0 0 1 -1.78662,-0.373l-12.8479,-5.56153a4.50569,4.50569 0 0 1 -2.342,-5.917l9.93164,-22.94238a11.49973,11.49973 0 1 1 21.10718,9.13574l-9.9314,22.94238a4.51063,4.51063 0 0 1 -4.13086,2.71582l-0.00004,-0.00003z" fill="#fe4400" id="svg_84"/>
  <circle cx="592.23373" cy="228.89093" r="24.56103" fill="#ffb8b8" id="svg_85"/>
  <path d="m567.23062,216.82384a88.59059,88.59059 0 0 0 38.32618,12.62843l-4.03992,-4.84061a29.68817,29.68817 0 0 0 9.17074,1.82105c3.13021,-0.04875 6.40987,-1.254 8.18642,-3.83171a9.342,9.342 0 0 0 0.62531,-8.62974a17.694,17.694 0 0 0 -5.56636,-6.96014a33.13951,33.13951 0 0 0 -30.84447,-5.51248a19.80609,19.80609 0 0 0 -9.21238,5.90943c-2.32838,2.87238 -6.81094,5.43156 -5.61879,8.93167l-1.02673,0.4841z" fill="#2f2e41" id="svg_86"/>
  <path d="m596.3635,197.00297a75.48471,75.48471 0 0 0 -27.463,-17.7592c-6.63872,-2.45941 -13.86459,-3.97895 -20.80509,-2.58225s-13.50411,6.19807 -15.44041,13.00778c-1.58332,5.56836 0.05158,11.56379 2.50871,16.80555s5.73758,10.10247 7.72463,15.53985a35.46793,35.46793 0 0 1 -35.689,47.56227c6.81938,0.91437 13.10515,4.119 19.77076,5.82483s14.53281,1.59011 19.48624,-3.18519c5.24091,-5.05244 5.34584,-13.26718 5.09245,-20.54249l-1.13,-32.445c-0.1921,-5.51543 -0.35615,-11.20763 1.63288,-16.35551s6.71617,-9.65569 12.23475,-9.60885c4.18253,0.0355 7.88442,2.56926 11.23865,5.068s6.90446,5.16474 11.0706,5.53641s8.92293,-2.71144 8.61118,-6.88249" fill="#2f2e41" id="svg_87"/>
  <polygon points="482.197 281.087 538.75 282.422 546.943 342.878 494.716 344.05 482.197 281.087" fill="#e6e6e6" id="svg_88"/>
  <path d="m542.333,297.17619a10.52563,10.52563 0 0 1 0.88489,1.40152l49.32026,5.19623l7.09959,-9.734l16.09071,8.79449l-13.94447,23.62125l-60.48739,-15.4225a10.4958,10.4958 0 1 1 1.03641,-13.857l0,0.00001z" fill="#ffb8b8" id="svg_89"/>
  <path d="m609.824,311.80653a4.49628,4.49628 0 0 1 -1.78662,-0.373l-12.8479,-5.56153a4.50569,4.50569 0 0 1 -2.342,-5.917l9.93164,-22.94238a11.49973,11.49973 0 1 1 21.10718,9.13574l-9.9314,22.94238a4.51063,4.51063 0 0 1 -4.13086,2.71582l-0.00004,-0.00003z" fill="#fe4400" id="svg_90"/>
  <path d="m493.56997,311.48227l-398,0a6.5,6.5 0 1 0 0,13l11.5,0l0,141.5a6.5,6.5 0 0 0 13,0l0,-129.00994l72.8711,132.07788a6.5,6.5 0 0 0 11.2583,-6.5l-76.17578,-138.06794l348.04638,0l0,0.08417l-76.1289,137.98377a6.49977,6.49977 0 1 0 11.25781,6.5l64.87109,-117.57813l0,114.51019a6.5,6.5 0 0 0 13,0l0,-138.07263l1.89112,-3.42737l2.60888,0a6.5,6.5 0 0 0 0,-13z" fill="#3f3d56" id="svg_91"/>
 </g>

</svg>