<svg width="250" height="618.10603" xmlns="http://www.w3.org/2000/svg" data-name="Layer 1">
 <g>
  <title>Layer 1</title>
  <path d="m162.315,93.96771l-68.50224,0.66737c-3.21977,-15.85137 -14.03811,-57.44279 -4.29525,-68.78728a16.67423,16.67423 0 0 1 17.56393,-14.92057l0,0c10.61742,-16.61983 28.30223,-14.12446 40.255,-3.74465c12.02932,4.15075 16.56454,11.52481 14.9786,21.53174c8.90863,7.798 10.55217,17.28535 6.55313,28.08487l-6.55317,37.16852z" fill="#2f2e41" id="svg_1"/>
  <path d="m155.72051,136.16684l-49.42241,-6.8431l-9.88449,-14.44655c13.61613,-9.03186 18.43428,-21.64693 12.16552,-38.77759l34.21552,-0.76034c-1.60321,15.25509 3.4416,27.06668 17.48793,34.21552l-4.56207,26.61206z" fill="#ffb9b9" id="svg_2"/>
  <path d="m93.61344,581.94413l-1.88979,25.835a8.22428,8.22428 0 0 0 8.69988,8.80928l13.26991,-0.80379a4.19488,4.19488 0 0 0 3.81529,-5.2044l-7.36591,-29.46277l-16.52938,0.82668z" fill="#ffffff" id="svg_3"/>
  <path d="m137.57403,581.11746l-7.36591,29.46277a4.19488,4.19488 0 0 0 3.81529,5.2044l13.26994,0.80373a8.22428,8.22428 0 0 0 8.69988,-8.80928l-1.88979,-25.835l-16.52941,-0.82662z" fill="#ffffff" id="svg_4"/>
  <polygon points="154.96039533615112,585.5306396484375 137.05237531661987,583.733642578125 119.22447156906128,393.1636047363281 112.48643445968628,583.11962890625 94.89244031906128,582.4896240234375 65.23942518234253,319.4095764160156 178.53040266036987,319.4095764160156 154.96039533615112,585.5306396484375 " fill="#4b4fa1" id="svg_5"/>
  <circle cx="127.58775" cy="54.0496" r="34.21552" fill="#ffb9b9" id="svg_6"/>
  <path d="m195.25844,325.49271l-138.38276,1.52069c20.53674,-78.18094 32.82143,-150.80436 11.40517,-200.731l34.21552,-16.72758c16.49787,17.20783 34.87135,15.43378 54.74483,-1.52069l32.69483,8.36379c-5.59975,65.47111 -3.08993,135.5911 5.32241,209.09479z" fill="#4b4fa1" id="svg_7"/>
  <path d="m18.85844,244.89615l85.919,34.21552l19.20933,5.6498a6.645,6.645 0 0 0 8.32164,-4.76336l0,0a6.645,6.645 0 0 0 -3.78319,-7.69957l-19.94607,-6.11272l-60.06724,-34.97586l12.54569,-33.075l-26.23192,-14.06634l-15.96724,60.82753z" fill="#ffb9b9" id="svg_8"/>
  <path d="m19.61878,182.54788c16.34695,6.37738 29.34874,17.26137 39.53794,31.93448l31.93448,-46.381l-22.81035,-41.819l-48.66207,56.26552z" fill="#4b4fa1" id="svg_9"/>
  <path d="m166.15044,48.50433c-13.88705,-3.57812 -27.54045,-4.06939 -40.81285,0.46912c-8.45455,4.09479 -18.60778,3.7175 -29.89922,0.34366l0,-34.13686l60.95868,1.62557l9.75339,31.69851z" fill="#2f2e41" id="svg_10"/>
  <path d="m104.49223,205.03062a10.14514,10.14514 0 0 0 -10.13379,10.13381l4,83.73242a10.14514,10.14514 0 0 0 10.13379,10.13377l45.73242,0a10.14514,10.14514 0 0 0 10.13379,-10.13377l4,-83.73242a10.14514,10.14514 0 0 0 -10.13379,-10.13381l-53.73242,0z" fill="#3f3d56" id="svg_11"/>
  <path d="m234.24844,238.57062l-74.89,29.82l-5.65,2.25c-0.18,0.07 -0.36,0.13 -0.55,0.19l-18.93,5.57c-2.42,0.71 -5.77,-2.55 -7.73,-4.8a6.08507,6.08507 0 0 1 -0.16,-7.93a6.74613,6.74613 0 0 1 0.86005,-0.83a5.58864,5.58864 0 0 1 2.5,-1.1l18.91,-3.72a6.336,6.336 0 0 0 1.93,-0.72l8.82,-5.14l45.79,-26.66a6.21845,6.21845 0 0 0 2.69,-7.58l-8.74,-23.05a6.21114,6.21114 0 0 1 2.87,-7.68l14.48,-7.76a6.20589,6.20589 0 0 1 8.94,3.9l12.56995,47.88a6.21936,6.21936 0 0 1 -3.71,7.36z" fill="#ffb9b9" id="svg_12"/>
  <path d="m238.5981,174.18409c-16.34695,6.37737 -29.34874,17.26136 -39.53794,31.93448l-31.93448,-46.381l22.81035,-43.33965l48.66207,57.78617z" fill="#4b4fa1" id="svg_13"/>
  <path d="m150.35844,84.50317c-14.96826,6.22617 -30.66333,5.97335 -47,0c4.75366,-8.114 -2.352,-14.46886 -6,-22.65975l61,-1.81278c-4.66479,7.11563 -11.548,15.52259 -8,24.47253z" fill="#fff" id="svg_14"/>
  <polygon points="157.71240949630737,61.38459777832031 157.00440168380737,60.67759704589844 158.00440168380737,59.67759704589844 163.97840070724487,52.705596923828125 164.73841047286987,53.35559844970703 158.73841047286987,60.35559844970703 157.71240949630737,61.38459777832031 " fill="#fff" id="svg_15"/>
  <rect x="239.32326" y="767.60358" width="1.00054" height="7.81025" fill="#fff" id="svg_16" transform="rotate(-50.1944 -591.676 569.456)"/>
  <rect x="570.10973" y="-272.25023" width="19.55761" height="1.0002" transform="matrix(0.537 -0.84358 0.84358 0.537 72.4494 710.894)" fill="#fff" id="svg_17"/>
  <rect x="112.1787" y="548.20988" width="1.0002" height="19.55761" fill="#fff" id="svg_18" transform="rotate(-32.4712 -722.071 340.185)"/>
  <path d="m161.35844,250.74609l0,18.11653l-6.30677,2.51154c-0.20091,0.07814 -0.40183,0.14511 -0.61391,0.21209l-21.13032,6.21737c-2.70128,0.79249 -6.44071,-2.84639 -8.62849,-5.35792a6.79238,6.79238 0 0 1 -0.17864,-8.85175a7.53018,7.53018 0 0 1 0.96,-0.9265a6.23835,6.23835 0 0 1 2.79059,-1.2279l21.108,-4.15237a7.072,7.072 0 0 0 2.15433,-0.80372l9.84521,-5.73737z" fill="#fff" id="svg_19"/>
  <path d="m170.49819,186.12652l-3.6137,0c0,-51.11056 -10.52349,-86.7288 -20.77877,-86.7288l-0.90343,-3.6137c9.197,0 15.06047,14.824 18.35965,27.26023c4.47301,16.85937 6.93625,39.26237 6.93625,63.08227z" fill="#3f3d56" id="svg_20"/>
  <path d="m87.38309,173.47862l-3.61365,0c0,-46.80915 10.59628,-75.8877 26.19933,-75.8877l-0.90343,3.6137c-10.79262,0 -21.68225,22.34781 -21.68225,72.274z" fill="#3f3d56" id="svg_21"/>
  <circle cx="168.69134" cy="187.02994" r="9.03425" fill="#3f3d56" id="svg_22"/>
  <path d="m72.92829,195.16077l-3.6137,0c0,-12.95188 7.2949,-23.48905 16.26165,-23.48905l0,3.6137c-6.97419,0 -12.64795,8.91603 -12.64795,19.87535z" fill="#3f3d56" id="svg_23"/>
  <path d="m101.83789,195.16077l-3.6137,0c0,-10.95932 -5.67375,-19.87535 -12.648,-19.87535l0,-3.6137c8.96681,0 16.2617,10.53717 16.2617,23.48905z" fill="#3f3d56" id="svg_24"/>
  <circle cx="100.03104" cy="196.06419" r="3.6137" fill="#3f3d56" id="svg_25"/>
  <circle cx="71.12144" cy="196.06419" r="3.6137" fill="#3f3d56" id="svg_26"/>
  <path d="m-364.37095,74.62204l-63.46607,10.74758a6.42418,6.42418 0 0 1 -7.27008,-4.61266c-4.58533,-16.54945 -14.172,-38.13882 -4.86434,-48.97662a17.80544,17.80544 0 0 1 18.75545,-15.93281l0,0c11.33772,-17.74734 30.22229,-15.08269 42.98594,-3.99869c12.84541,4.43234 17.6883,12.30667 15.99477,22.99248c5.54925,4.85742 8.45864,10.32871 9.07208,16.33389a23.58911,23.58911 0 0 1 -6.45376,18.35077l-4.75399,5.09606z" fill="#2f2e41" id="svg_27"/>
  <path d="m-374.23827,124.5871l-49.20045,-2.89414c4.82175,-11.06687 6.74782,-21.72377 4.82358,-31.83558l36.65915,0c-0.08308,7.76385 3.78049,21.19393 7.71772,34.72972z" fill="#9f616a" id="svg_28"/>
  <path d="m-433.46195,579.21362l-2.018,27.58763a8.78223,8.78223 0 0 0 9.29009,9.40691l14.17019,-0.85826a4.47947,4.47947 0 0 0 4.07413,-5.55747l-7.86563,-31.46157l-17.65078,0.88276z" fill="#e6e6e6" id="svg_29"/>
  <path d="m-387.58685,578.33083l-7.86563,31.46157a4.47947,4.47947 0 0 0 4.07413,5.55747l14.17019,0.85826a8.78223,8.78223 0 0 0 9.29009,-9.40691l-2.018,-27.58763l-17.65078,-0.88276z" fill="#e6e6e6" id="svg_30"/>
  <polygon points="-369.0215992927551,583.0436401367188 -388.1436085700989,581.1246337890625 -407.1815724372864,377.6255798339844 -414.3765797615051,580.4686279296875 -433.16359758377075,579.7955932617188 -464.8285756111145,298.86859130859375 -343.8516163825989,298.86859130859375 -369.0215992927551,583.0436401367188 " fill="#4b4fa1" id="svg_31"/>
  <circle cx="-399.31846" cy="65.03171" r="36.53674" fill="#9f616a" id="svg_32"/>
  <path d="m-358.13967,47.57762c-14.82916,-2.58256 -29.40882,-2.93714 -43.58164,0.3386c-9.02812,2.95548 -19.87016,2.68316 -31.92763,0.248l0,-24.63881l65.0942,1.17328l10.41507,22.87893z" fill="#2f2e41" id="svg_33"/>
  <path d="m-375.00297,94.34777c-15.98373,6.64857 -32.74357,6.37859 -50.18855,0c5.07616,-8.66447 -2.51161,-15.45044 -6.407,-24.197l65.13832,-1.93576c-4.9813,7.59835 -12.33144,16.57561 -8.54277,26.13276z" fill="#fff" id="svg_34"/>
  <rect x="-486.38567" y="372.03616" width="1.00054" height="8.33965" fill="#fff" id="svg_35" transform="rotate(-50.1949 -788.326 165.969)"/>
  <rect x="44.3732" y="-262.99754" width="20.88467" height="1.0002" transform="matrix(0.537 -0.84358 0.84358 0.537 -178.464 272.236)" fill="#fff" id="svg_36"/>
  <rect x="-183.0354" y="-95.48844" width="1.0002" height="20.88467" transform="matrix(0.84366 -0.53687 0.53687 0.84366 -230.075 58.7858)" fill="#fff" id="svg_37"/>
  <path d="m-468.7803,231.67043l-27.97673,-17.36487l23.85922,-69.8789a32.96549,32.96549 0 0 1 14.40973,-17.11578l8.03736,-4.6532l0.69885,70.49475l-19.02843,38.518z" fill="#4b4fa1" id="svg_38"/>
  <path d="m-347.85244,265.60882l-4.13912,-35.45239c-0.221,-18.71283 2.96247,-36.80463 10.55359,-53.47473l3.85883,-52.09461l-42.44742,-17.36486c-0.13019,0.865 -0.24084,1.72943 -0.365,2.5943l-19.894,9.947l-19.40174,-4.40943l0.10743,-6.20239l-38.58857,17.36487c12.76124,59.328 5.801,120.93756 -16.14379,193.709l50.83691,13.9007l0.42267,-24.41046l45.3067,-3.23615c0.46667,7.91968 0.84167,15.69873 1.05933,23.30536c25.56524,9.412 26.44336,9.256 49.73651,-4.22021c-9.27617,-19.50299 -16.62095,-39.79767 -20.90233,-59.956z" fill="#4b4fa1" id="svg_39"/>
  <polygon points="-282.59059953689575,222.9875946044922 -308.63759660720825,214.3055877685547 -350.301598072052,165.80259704589844 -337.5795826911926,124.58760070800781 -279.6965870857239,205.62359619140625 -282.59059953689575,222.9875946044922 " fill="#4b4fa1" id="svg_40"/>
  <path d="m-364.22229,260.53791a7.24568,7.24568 0 0 0 8.65511,5.459l22.11071,-5.00728l-3.19562,-14.11319l-22.11118,5.00634a7.23668,7.23668 0 0 0 -5.459,8.65511l-0.00002,0.00002z" fill="#e6e6e6" id="svg_41"/>
  <path d="m-344.33212,244.21171l12.54129,23.15316c21.09424,-5.88333 39.37571,-24.43091 56.91816,-46.30631l-4.82357,-15.43543l-29.90615,7.71772l-34.72973,30.87086z" fill="#4b4fa1" id="svg_42"/>
  <polygon points="-507.85158586502075,171.58558654785156 -483.7755970954895,175.8845977783203 -428.7445912361145,254.131591796875 -457.9796071052551,247.25259399414062 -507.85158586502075,171.58558654785156 " fill="#e6e6e6" id="svg_43"/>
  <path d="m-512.1218,170.62773a2.04777,2.04777 0 0 0 -1.68024,3.17254l51.43935,78.04626a2.04112,2.04112 0 0 0 1.23887,0.86532l23.93321,5.631a2.04428,2.04428 0 0 0 2.14046,-3.166l-56.47726,-80.30353a2.03243,2.03243 0 0 0 -1.31282,-0.83611l-18.89578,-3.37459a2.21656,2.21656 0 0 0 -0.38579,-0.03489z" fill="#3f3d56" id="svg_44"/>
  <path d="m-480.03374,226.42997l1.42965,14.40006l22.55962,-2.23938a7.2354,7.2354 0 0 0 -1.42917,-14.40006l-22.5601,2.23938z" fill="#e6e6e6" id="svg_45"/>
  <path d="m-499.6507,224.76198a18.6092,18.6092 0 0 0 18.58724,18.485l3.70954,0l2.70054,-22.50545l-22.36037,-8.04981l-2.63695,12.07026z" fill="#4b4fa1" id="svg_46"/>
  <polygon points="-368.24257707595825,70.70459747314453 -368.9495778083801,69.99759674072266 -367.8815846443176,68.92959594726562 -361.5006031990051,61.48259735107422 -360.74160051345825,62.132598876953125 -367.1486134529114,69.60759735107422 -368.24257707595825,70.70459747314453 " fill="#fff" id="svg_47"/>
 </g>

</svg>