<svg width="250" height="618.10603" xmlns="http://www.w3.org/2000/svg" data-name="Layer 1">

 <g>
  <title>Layer 1</title>
  <path id="svg_1" fill="#2f2e41" d="m677.43245,95.04311l-68.50224,0.66737c-3.21977,-15.85137 -14.03811,-57.44279 -4.29525,-68.78728a16.67423,16.67423 0 0 1 17.56393,-14.92057l0,0c10.61742,-16.61983 28.30223,-14.12446 40.255,-3.74465c12.02932,4.15075 16.56454,11.52481 14.9786,21.53174c8.90863,7.798 10.55217,17.28535 6.55313,28.08487l-6.55317,37.16852z"/>
  <path id="svg_2" fill="#ffb9b9" d="m670.83796,137.24224l-49.42241,-6.8431l-9.88449,-14.44655c13.61613,-9.03186 18.43428,-21.64693 12.16552,-38.77759l34.21552,-0.76034c-1.60321,15.25509 3.4416,27.06668 17.48793,34.21552l-4.56207,26.61206z"/>
  <path id="svg_3" fill="#e6e6e6" d="m609.73089,583.01953l-1.88979,25.835a8.22428,8.22428 0 0 0 8.69988,8.80928l13.26991,-0.80379a4.19488,4.19488 0 0 0 3.81529,-5.2044l-7.36591,-29.46277l-16.52938,0.82668z"/>
  <path id="svg_4" fill="#e6e6e6" d="m652.69148,582.19286l-7.36591,29.46277a4.19488,4.19488 0 0 0 3.81529,5.2044l13.26994,0.80373a8.22428,8.22428 0 0 0 8.69988,-8.80928l-1.88979,-25.835l-16.52941,-0.82662z"/>
  <polygon id="svg_5" fill="#4b4fa1" points="670.077880859375,586.6060180664062 652.1698608398438,584.8090209960938 634.3419189453125,394.239013671875 627.6038818359375,584.1950073242188 610.0098876953125,583.5650024414062 580.3568725585938,320.4849853515625 693.6478881835938,320.4849853515625 670.077880859375,586.6060180664062 "/>
  <circle id="svg_6" fill="#ffb9b9" r="34.21552" cy="55.125" cx="642.7052"/>
  <path id="svg_7" fill="#4b4fa1" d="m710.37589,326.56811l-138.38276,1.52069c20.53674,-78.18094 32.82143,-150.80436 11.40517,-200.731l34.21552,-16.72758c16.49787,17.20783 34.87135,15.43378 54.74483,-1.52069l32.69483,8.36379c-5.59975,65.47111 -3.08993,135.5911 5.32241,209.09479z"/>
  <path id="svg_8" fill="#ffb9b9" d="m533.97589,245.97155l85.919,34.21552l19.20933,5.6498a6.645,6.645 0 0 0 8.32164,-4.76336l0,0a6.645,6.645 0 0 0 -3.78319,-7.69957l-19.94607,-6.11272l-60.06724,-34.97586l12.54569,-33.075l-26.23192,-14.06634l-15.96724,60.82753z"/>
  <path id="svg_9" fill="#4b4fa1" d="m534.73623,183.62328c16.34695,6.37738 29.34874,17.26137 39.53794,31.93448l31.93448,-46.381l-22.81035,-41.819l-48.66207,56.26552z"/>
  <path id="svg_10" fill="#2f2e41" d="m681.26789,49.57973c-13.88705,-3.57812 -27.54045,-4.06939 -40.81285,0.46912c-8.45455,4.09479 -18.60778,3.7175 -29.89922,0.34366l0,-34.13686l60.95868,1.62557l9.75339,31.69851z"/>
  <path id="svg_11" fill="#3f3d56" d="m619.60968,206.10602a10.14514,10.14514 0 0 0 -10.13379,10.13381l4,83.73242a10.14514,10.14514 0 0 0 10.13379,10.13377l45.73242,0a10.14514,10.14514 0 0 0 10.13379,-10.13377l4,-83.73242a10.14514,10.14514 0 0 0 -10.13379,-10.13381l-53.73242,0z"/>
  <path id="svg_12" fill="#ffb9b9" d="m749.36589,239.64602l-74.89,29.82l-5.65,2.25c-0.18,0.07 -0.36,0.13 -0.55,0.19l-18.93,5.57c-2.42,0.71 -5.77,-2.55 -7.73,-4.8a6.08507,6.08507 0 0 1 -0.16,-7.93a6.74613,6.74613 0 0 1 0.86005,-0.83a5.58864,5.58864 0 0 1 2.5,-1.1l18.91,-3.72a6.336,6.336 0 0 0 1.93,-0.72l8.82,-5.14l45.79,-26.66a6.21845,6.21845 0 0 0 2.69,-7.58l-8.74,-23.05a6.21114,6.21114 0 0 1 2.87,-7.68l14.48,-7.76a6.20589,6.20589 0 0 1 8.94,3.9l12.56995,47.88a6.21936,6.21936 0 0 1 -3.71,7.36z"/>
  <path id="svg_13" fill="#4b4fa1" d="m753.71555,175.25949c-16.34695,6.37737 -29.34874,17.26136 -39.53794,31.93448l-31.93448,-46.381l22.81035,-43.33965l48.66207,57.78617z"/>
  <path id="svg_14" fill="#fff" d="m665.47589,85.57857c-14.96826,6.22617 -30.66333,5.97335 -47,0c4.75366,-8.114 -2.352,-14.46886 -6,-22.65975l61,-1.81278c-4.66479,7.11563 -11.548,15.52259 -8,24.47253z"/>
  <polygon id="svg_15" fill="#fff" points="672.8298950195312,62.459999084472656 672.1218872070312,61.75299835205078 673.1218872070312,60.75299835205078 679.0958862304688,53.78099822998047 679.8558959960938,54.430999755859375 673.8558959960938,61.430999755859375 672.8298950195312,62.459999084472656 "/>
  <rect transform="rotate(-50.1944 -76.559 570.531)" id="svg_16" fill="#fff" height="7.81025" width="1.00054" y="768.67898" x="754.44071"/>
  <rect id="svg_17" fill="#fff" transform="matrix(0.537 -0.84358 0.84358 0.537 72.4494 710.894)" height="1.0002" width="19.55761" y="162.87167" x="845.82163"/>
  <rect transform="rotate(-32.4712 -206.954 341.261)" id="svg_18" fill="#fff" height="19.55761" width="1.0002" y="549.28528" x="627.29615"/>
  <path id="svg_19" fill="#fff" d="m676.47589,251.82149l0,18.11653l-6.30677,2.51154c-0.20091,0.07814 -0.40183,0.14511 -0.61391,0.21209l-21.13032,6.21737c-2.70128,0.79249 -6.44071,-2.84639 -8.62849,-5.35792a6.79238,6.79238 0 0 1 -0.17864,-8.85175a7.53018,7.53018 0 0 1 0.96,-0.9265a6.23835,6.23835 0 0 1 2.79059,-1.2279l21.108,-4.15237a7.072,7.072 0 0 0 2.15433,-0.80372l9.84521,-5.73737z"/>
  <path id="svg_20" fill="#3f3d56" d="m685.61564,187.20192l-3.6137,0c0,-51.11056 -10.52349,-86.7288 -20.77877,-86.7288l-0.90343,-3.6137c9.197,0 15.06047,14.824 18.35965,27.26023c4.47301,16.85937 6.93625,39.26237 6.93625,63.08227z"/>
  <path id="svg_21" fill="#3f3d56" d="m602.50054,174.55402l-3.61365,0c0,-46.80915 10.59628,-75.8877 26.19933,-75.8877l-0.90343,3.6137c-10.79262,0 -21.68225,22.34781 -21.68225,72.274z"/>
  <circle id="svg_22" fill="#3f3d56" r="9.03425" cy="188.10534" cx="683.80879"/>
  <path id="svg_23" fill="#3f3d56" d="m588.04574,196.23617l-3.6137,0c0,-12.95188 7.2949,-23.48905 16.26165,-23.48905l0,3.6137c-6.97419,0 -12.64795,8.91603 -12.64795,19.87535z"/>
  <path id="svg_24" fill="#3f3d56" d="m616.95534,196.23617l-3.6137,0c0,-10.95932 -5.67375,-19.87535 -12.648,-19.87535l0,-3.6137c8.96681,0 16.2617,10.53717 16.2617,23.48905z"/>
  <circle id="svg_25" fill="#3f3d56" r="3.6137" cy="197.13959" cx="615.14849"/>
  <circle id="svg_26" fill="#3f3d56" r="3.6137" cy="197.13959" cx="586.23889"/>
  <path id="svg_27" fill="#2f2e41" d="m150.7465,75.69744l-63.46607,10.74758a6.42418,6.42418 0 0 1 -7.27008,-4.61266c-4.58533,-16.54945 -14.172,-38.13882 -4.86434,-48.97662a17.80544,17.80544 0 0 1 18.75545,-15.93281l0,0c11.33772,-17.74734 30.22229,-15.08269 42.98594,-3.99869c12.84541,4.43234 17.6883,12.30667 15.99477,22.99248c5.54925,4.85742 8.45864,10.32871 9.07208,16.33389a23.58911,23.58911 0 0 1 -6.45376,18.35077l-4.75399,5.09606z"/>
  <path id="svg_28" fill="#9f616a" d="m140.87918,125.6625l-49.20045,-2.89414c4.82175,-11.06687 6.74782,-21.72377 4.82358,-31.83558l36.65915,0c-0.08308,7.76385 3.78049,21.19393 7.71772,34.72972z"/>
  <path id="svg_29" fill="#e6e6e6" d="m81.6555,580.28902l-2.018,27.58763a8.78223,8.78223 0 0 0 9.29009,9.40691l14.17019,-0.85826a4.47947,4.47947 0 0 0 4.07413,-5.55747l-7.86563,-31.46157l-17.65078,0.88276z"/>
  <path id="svg_30" fill="#e6e6e6" d="m127.5306,579.40623l-7.86563,31.46157a4.47947,4.47947 0 0 0 4.07413,5.55747l14.17019,0.85826a8.78223,8.78223 0 0 0 9.29009,-9.40691l-2.018,-27.58763l-17.65078,-0.88276z"/>
  <polygon id="svg_31" fill="#4b4fa1" points="146.09588623046875,584.1190185546875 126.97389221191406,582.2000122070312 107.93589782714844,378.70098876953125 100.74089050292969,581.5440063476562 81.95388793945312,580.8709716796875 50.28889465332031,299.9440002441406 171.26588439941406,299.9440002441406 146.09588623046875,584.1190185546875 "/>
  <circle id="svg_32" fill="#9f616a" r="36.53674" cy="66.10711" cx="115.79899"/>
  <path id="svg_33" fill="#2f2e41" d="m156.97778,48.65302c-14.82916,-2.58256 -29.40882,-2.93714 -43.58164,0.3386c-9.02812,2.95548 -19.87016,2.68316 -31.92763,0.248l0,-24.63881l65.0942,1.17328l10.41507,22.87893z"/>
  <path id="svg_34" fill="#fff" d="m140.11448,95.42317c-15.98373,6.64857 -32.74357,6.37859 -50.18855,0c5.07616,-8.66447 -2.51161,-15.45044 -6.407,-24.197l65.13832,-1.93576c-4.9813,7.59835 -12.33144,16.57561 -8.54277,26.13276z"/>
  <rect transform="rotate(-50.1949 -273.209 167.044)" id="svg_35" fill="#fff" height="8.33965" width="1.00054" y="373.11156" x="28.73178"/>
  <rect id="svg_36" fill="#fff" transform="matrix(0.537 -0.84358 0.84358 0.537 -178.464 272.236)" height="1.0002" width="20.88467" y="172.12436" x="320.0851"/>
  <rect id="svg_37" fill="#fff" transform="matrix(0.84366 -0.53687 0.53687 0.84366 -230.075 58.7858)" height="20.88467" width="1.0002" y="181.97224" x="250.9749"/>
  <path id="svg_38" fill="#4b4fa1" d="m46.33715,232.74583l-27.97673,-17.36487l23.85922,-69.8789a32.96549,32.96549 0 0 1 14.40973,-17.11578l8.03736,-4.6532l0.69885,70.49475l-19.02843,38.518z"/>
  <path id="svg_39" fill="#4b4fa1" d="m167.26501,266.68422l-4.13912,-35.45239c-0.221,-18.71283 2.96247,-36.80463 10.55359,-53.47473l3.85883,-52.09461l-42.44742,-17.36486c-0.13019,0.865 -0.24084,1.72943 -0.365,2.5943l-19.894,9.947l-19.40174,-4.40943l0.10743,-6.20239l-38.58857,17.36487c12.76124,59.328 5.801,120.93756 -16.14379,193.709l50.83691,13.9007l0.42267,-24.41046l45.3067,-3.23615c0.46667,7.91968 0.84167,15.69873 1.05933,23.30536c25.56524,9.412 26.44336,9.256 49.73651,-4.22021c-9.27617,-19.50299 -16.62095,-39.79767 -20.90233,-59.956z"/>
  <polygon id="svg_40" fill="#4b4fa1" points="232.52688598632812,224.06300354003906 206.47988891601562,215.38099670410156 164.81588745117188,166.8780059814453 177.5378875732422,125.66300201416016 235.4208984375,206.69900512695312 232.52688598632812,224.06300354003906 "/>
  <path id="svg_41" fill="#e6e6e6" d="m150.89516,261.61331a7.24568,7.24568 0 0 0 8.65511,5.459l22.11071,-5.00728l-3.19562,-14.11319l-22.11118,5.00634a7.23668,7.23668 0 0 0 -5.459,8.65511l-0.00002,0.00002z"/>
  <path id="svg_42" fill="#4b4fa1" d="m170.78533,245.28711l12.54129,23.15316c21.09424,-5.88333 39.37571,-24.43091 56.91816,-46.30631l-4.82357,-15.43543l-29.90615,7.71772l-34.72973,30.87086z"/>
  <polygon id="svg_43" fill="#e6e6e6" points="7.265892028808594,172.66099548339844 31.341888427734375,176.9600067138672 86.37289428710938,255.20700073242188 57.13789367675781,248.3280029296875 7.265892028808594,172.66099548339844 "/>
  <path id="svg_44" fill="#3f3d56" d="m2.99565,171.70313a2.04777,2.04777 0 0 0 -1.68024,3.17254l51.43935,78.04626a2.04112,2.04112 0 0 0 1.23887,0.86532l23.93321,5.631a2.04428,2.04428 0 0 0 2.14046,-3.166l-56.47726,-80.30353a2.03243,2.03243 0 0 0 -1.31282,-0.83611l-18.89578,-3.37459a2.21656,2.21656 0 0 0 -0.38579,-0.03489z"/>
  <path id="svg_45" fill="#e6e6e6" d="m35.08371,227.50537l1.42965,14.40006l22.55962,-2.23938a7.2354,7.2354 0 0 0 -1.42917,-14.40006l-22.5601,2.23938z"/>
  <path id="svg_46" fill="#4b4fa1" d="m15.46675,225.83738a18.6092,18.6092 0 0 0 18.58724,18.485l3.70954,0l2.70054,-22.50545l-22.36037,-8.04981l-2.63695,12.07026z"/>
  <polygon id="svg_47" fill="#fff" points="146.87489318847656,71.77999877929688 146.1678924560547,71.072998046875 147.2358856201172,70.00499725341797 153.6168975830078,62.55799865722656 154.37588500976562,63.20800018310547 147.96888732910156,70.68299865722656 146.87489318847656,71.77999877929688 "/>
 </g>
</svg>